<?xml version="1.0" standalone="no"?>
<!DOCTYPE svg PUBLIC "-//W3C//DTD SVG 20010904//EN"
 "http://www.w3.org/TR/2001/REC-SVG-20010904/DTD/svg10.dtd">
<svg version="1.0" xmlns="http://www.w3.org/2000/svg"
 width="303.000000pt" height="57.000000pt" viewBox="0 0 303.000000 57.000000"
 preserveAspectRatio="xMidYMid meet">

<g transform="translate(0.000000,57.000000) scale(0.100000,-0.100000)"
fill="#000000" stroke="none">
<path d="M0 285 l0 -285 1515 0 1515 0 0 285 0 285 -1515 0 -1515 0 0 -285z
m2518 123 c16 -16 -3 -48 -29 -48 -28 0 -37 30 -14 46 23 17 28 17 43 2z
m-126 -53 c-2 -15 0 -25 7 -25 19 0 12 -42 -8 -47 -14 -3 -23 -21 -33 -61 -12
-50 -17 -57 -41 -60 -15 -2 -27 -2 -27 0 0 2 7 28 15 58 8 30 15 56 15 58 0 1
-7 2 -16 2 -11 0 -14 5 -10 16 3 9 6 19 6 24 0 4 9 10 20 13 12 3 20 14 20 26
0 16 6 21 29 21 25 0 28 -3 23 -25z m-1346 -40 c4 -8 3 -22 0 -30 -5 -13 -10
-14 -27 -5 -16 9 -26 8 -45 -5 -33 -22 -40 -43 -20 -63 13 -14 21 -14 46 -5
34 13 33 13 20 -21 -8 -22 -16 -26 -53 -26 -58 0 -81 18 -81 64 0 37 31 81 69
96 34 14 85 11 91 -5z m204 -5 c31 -31 26 -76 -14 -116 -28 -28 -41 -34 -78
-34 -57 0 -81 18 -81 59 0 84 118 146 173 91z m205 10 c-1 -18 -34 -50 -48
-44 -20 7 -43 -28 -52 -78 -6 -34 -11 -38 -37 -38 -23 0 -28 4 -24 18 3 9 13
47 22 84 l16 67 62 -2 c33 -1 61 -4 61 -7z m95 0 c0 -7 6 -7 19 0 56 30 108
-5 98 -66 -12 -71 -86 -120 -133 -89 -18 11 -24 12 -24 3 0 -7 -5 -30 -11 -50
-8 -31 -15 -38 -34 -38 -14 0 -25 5 -25 11 0 10 47 202 55 227 5 14 55 16 55
2z m320 -10 c31 -31 26 -76 -14 -116 -28 -28 -41 -34 -78 -34 -57 0 -81 18
-81 59 0 84 118 146 173 91z m205 10 c-1 -18 -34 -50 -48 -44 -20 7 -43 -28
-52 -78 -6 -34 -11 -38 -37 -38 -23 0 -28 4 -24 18 3 9 13 47 22 84 l16 67 62
-2 c33 -1 61 -4 61 -7z m170 -3 c19 -15 18 -31 -5 -118 l-10 -37 -69 0 c-76
-1 -98 11 -86 48 10 32 50 53 90 48 28 -3 35 -1 32 11 -2 12 -13 15 -39 14
-24 -2 -38 3 -42 13 -11 30 93 47 129 21z m255 1 c0 -7 -8 -44 -18 -83 -16
-63 -21 -70 -45 -73 -30 -4 -31 -2 -18 48 6 19 15 54 21 78 9 35 15 42 35 42
14 0 25 -6 25 -12z m198 -4 c40 -28 24 -107 -28 -137 -36 -22 -98 -22 -122 0
-20 18 -24 64 -7 94 27 50 113 74 157 43z m142 7 c0 -5 14 -4 30 2 61 23 79
-20 51 -120 -10 -38 -15 -43 -40 -43 l-29 0 14 53 c18 69 18 77 -6 77 -22 0
-33 -19 -50 -87 -9 -36 -15 -43 -35 -43 -14 0 -25 5 -25 11 0 11 26 121 35
147 5 14 55 17 55 3z"/>
<path d="M1153 272 c-19 -12 -20 -53 -1 -65 22 -15 60 18 56 47 -3 22 -34 32
-55 18z"/>
<path d="M1540 261 c-14 -28 -12 -48 6 -55 32 -12 77 36 59 64 -11 17 -54 11
-65 -9z"/>
<path d="M1773 272 c-19 -12 -20 -53 -1 -65 22 -15 60 18 56 47 -3 22 -34 32
-55 18z"/>
<path d="M2134 219 c-3 -6 -2 -15 4 -21 11 -11 52 6 52 22 0 14 -47 13 -56 -1z"/>
<path d="M2602 268 c-17 -17 -15 -57 2 -64 26 -10 56 15 56 46 0 25 -4 30 -23
30 -13 0 -28 -5 -35 -12z"/>
</g>
</svg>
