<svg version="1.1" id="Layer_1" xmlns="http://www.w3.org/2000/svg" xmlns:xlink="http://www.w3.org/1999/xlink" x="0px" y="0px"
	 width="100%" viewBox="0 0 2400 2737" enable-background="new 0 0 2400 2737" xml:space="preserve">
<path fill="#FFFFFF" opacity="1.000000" stroke="none" 
	d="
M1.999989,2428.000000 
	C2.000000,2426.500000 2.000000,2425.000000 2.698721,2423.287598 
	C7.910223,2419.438232 6.914513,2414.002197 7.590872,2409.272949 
	C9.516818,2395.806396 10.902122,2382.263672 12.657640,2368.771484 
	C17.108978,2334.560059 21.724144,2300.369385 26.126972,2266.151611 
	C30.362816,2233.231445 34.329483,2200.276123 38.569496,2167.356445 
	C43.528793,2128.851807 48.695477,2090.374023 53.697201,2051.874756 
	C57.417675,2023.237549 60.957809,1994.576782 64.689148,1965.940918 
	C68.976723,1933.036255 73.449905,1900.155884 77.725540,1867.249756 
	C82.044441,1834.010742 86.160141,1800.745239 90.473953,1767.505493 
	C95.641350,1727.688843 100.986931,1687.895264 106.137604,1648.076416 
	C110.353317,1615.485596 114.312294,1582.861694 118.537422,1550.272095 
	C123.701469,1510.440430 129.094437,1470.638428 134.256927,1430.806641 
	C138.438049,1398.546753 142.346527,1366.251587 146.518845,1333.990479 
	C151.031586,1299.097168 155.763992,1264.232422 160.296783,1229.341675 
	C163.161469,1207.291016 165.735565,1185.202515 168.618301,1163.154297 
	C173.652496,1124.650757 178.886688,1086.173462 183.917221,1047.669556 
	C187.571411,1019.700073 190.958954,991.695862 194.598328,963.724487 
	C199.095932,929.157043 203.506927,894.575745 208.394608,860.062622 
	C211.139465,840.680603 214.344910,821.340332 218.127914,802.135864 
	C221.583267,784.594727 232.243362,772.324646 248.667511,765.246887 
	C255.074951,762.485718 261.536377,759.766418 268.163269,757.612671 
	C294.403748,749.084595 320.679291,740.659424 347.015411,732.431641 
	C407.004852,713.690125 466.919067,694.689453 527.147461,676.746094 
	C540.027954,672.908630 549.026123,668.280090 548.789368,653.545044 
	C563.769714,595.566650 581.553955,538.463135 603.229614,482.636261 
	C629.765991,414.290344 661.027405,348.211670 699.711060,285.801270 
	C737.930969,224.139191 781.921387,167.249298 836.832336,119.294098 
	C873.402039,87.356750 913.333679,60.693008 958.025879,41.574024 
	C1000.655640,23.337317 1045.049316,12.075638 1092.522461,9.989969 
	C1105.705688,9.966709 1117.912109,9.871001 1130.934082,9.907366 
	C1165.608887,13.700026 1194.914185,27.988123 1220.365356,49.873020 
	C1234.412354,61.951729 1246.848999,75.903214 1259.658691,88.658920 
	C1277.475220,90.417900 1295.533081,92.024261 1313.547485,94.021790 
	C1338.703857,96.811226 1361.977539,105.713486 1384.004395,117.636696 
	C1422.710571,138.588486 1453.331665,168.712189 1479.329712,203.840012 
	C1506.805542,240.964264 1527.350220,281.823853 1544.346680,324.584290 
	C1548.624512,335.346710 1552.636475,346.214874 1556.869629,357.293640 
	C1558.633789,356.900024 1559.900146,356.705414 1561.112305,356.333862 
	C1579.840088,350.593567 1598.500122,344.622070 1617.304443,339.145050 
	C1629.948730,335.462219 1642.148438,329.823425 1656.598511,329.793732 
	C1662.420532,329.875732 1667.323730,329.864227 1672.587891,329.970947 
	C1672.948853,330.089111 1673.670654,330.325104 1673.772583,331.236023 
	C1673.913208,335.475830 1674.132080,338.813995 1673.961304,342.132141 
	C1672.815796,364.401886 1671.478760,386.662201 1670.417725,408.935791 
	C1669.435425,429.554321 1668.756104,450.187103 1667.875366,470.810699 
	C1667.151245,487.773499 1666.421875,504.737000 1665.527954,521.691406 
	C1663.792969,554.595276 1661.820190,587.486938 1660.180664,620.395386 
	C1659.136841,641.343506 1658.574097,662.315308 1657.684204,683.271729 
	C1657.091064,697.239380 1656.318848,711.199585 1655.596558,725.161560 
	C1653.739624,761.060181 1651.807251,796.955017 1650.023193,832.857239 
	C1649.114502,851.144958 1648.499512,869.447083 1647.678467,887.739441 
	C1647.021606,902.371094 1646.317139,917.001282 1645.522461,931.626038 
	C1643.770630,963.862000 1641.810669,996.087280 1640.203735,1028.330322 
	C1639.126343,1049.943848 1638.569458,1071.582886 1637.664795,1093.205688 
	C1637.080322,1107.173706 1636.340576,1121.135742 1635.578491,1135.095581 
	C1633.800781,1167.663818 1631.832886,1200.222290 1630.204712,1232.797852 
	C1629.141113,1254.078491 1628.602539,1275.384644 1627.705322,1296.674316 
	C1627.102661,1310.974976 1626.326904,1325.268921 1625.553711,1339.561768 
	C1623.774048,1372.462891 1621.827148,1405.355591 1620.185913,1438.263550 
	C1619.141235,1459.211914 1618.587036,1480.184082 1617.691162,1501.140503 
	C1617.079712,1515.440674 1616.290161,1529.733521 1615.524414,1544.026611 
	C1613.743774,1577.261475 1611.820923,1610.489258 1610.168823,1643.730347 
	C1609.144043,1664.346436 1608.563354,1684.984131 1607.682251,1705.607788 
	C1607.057129,1720.240601 1606.319214,1734.869385 1605.532959,1749.494629 
	C1603.764526,1782.396606 1601.823975,1815.289551 1600.170532,1848.197266 
	C1599.151245,1868.479858 1598.581055,1888.784546 1597.715454,1909.075439 
	C1597.091064,1923.708740 1596.370850,1938.338623 1595.590454,1952.964478 
	C1593.799072,1986.532227 1591.834961,2020.091064 1590.156860,2053.664307 
	C1589.126465,2074.279785 1588.551025,2094.917969 1587.664185,2115.541260 
	C1587.063354,2129.508545 1586.324219,2143.470459 1585.563477,2157.430176 
	C1583.788818,2189.998535 1581.831543,2222.557129 1580.206055,2255.132812 
	C1579.144043,2276.413574 1578.598877,2297.719727 1577.697876,2319.009277 
	C1577.092529,2333.309814 1576.305054,2347.602783 1575.538208,2361.895752 
	C1573.755005,2395.130371 1571.824707,2428.357910 1570.170166,2461.598633 
	C1569.144165,2482.214600 1568.568115,2502.852539 1567.688965,2523.476318 
	C1567.065063,2538.109375 1566.288940,2552.735840 1565.551880,2567.364014 
	C1563.675781,2604.595459 1561.687012,2641.821533 1559.939697,2679.059082 
	C1559.113159,2696.672852 1558.736938,2714.307617 1557.569580,2732.267334 
	C1539.286621,2729.690186 1521.537354,2727.066650 1503.907959,2723.796387 
	C1480.218506,2719.401855 1456.651367,2714.350586 1432.974731,2709.883057 
	C1417.379028,2706.939697 1401.637085,2704.769775 1386.043823,2701.814697 
	C1368.239502,2698.439697 1350.552734,2694.450195 1332.769287,2690.959473 
	C1310.821411,2686.651611 1288.835571,2682.534180 1266.849365,2678.424805 
	C1246.771851,2674.671631 1226.682861,2670.978027 1206.579346,2667.367188 
	C1181.312256,2662.829346 1155.992188,2658.579346 1130.759277,2653.861572 
	C1115.511108,2651.010742 1100.427856,2647.283691 1085.192993,2644.354248 
	C1064.750366,2640.423096 1044.219116,2636.956055 1023.750488,2633.157471 
	C991.776733,2627.224121 959.820862,2621.194336 927.862488,2615.178467 
	C883.487610,2606.825195 839.130615,2598.375977 794.738159,2590.117188 
	C778.156433,2587.032227 761.451050,2584.606201 744.882629,2581.456299 
	C719.175232,2576.569580 693.565735,2571.167480 667.857239,2566.286621 
	C654.284668,2563.709961 640.546875,2562.008789 626.962769,2559.486328 
	C611.103577,2556.541992 595.368103,2552.932129 579.509766,2549.982666 
	C563.581177,2547.020508 547.515625,2544.786621 531.604797,2541.739502 
	C513.152527,2538.206299 494.864288,2533.806641 476.394531,2530.377197 
	C452.137817,2525.872803 427.749969,2522.079590 403.462189,2517.736328 
	C382.373718,2513.965088 361.347473,2509.846924 340.291290,2505.895264 
	C318.909912,2501.882324 297.505798,2497.987305 276.147461,2493.855713 
	C251.557587,2489.098877 227.029724,2484.020752 202.434082,2479.294678 
	C168.541443,2472.781982 134.626083,2466.385010 100.689377,2460.106201 
	C84.104210,2457.038086 67.423645,2454.487061 50.832302,2451.450195 
	C34.524548,2448.465576 18.275078,2445.162842 2.000013,2442.000000 
	C2.000000,2438.571289 2.000000,2435.142334 2.598263,2430.677734 
	C2.797676,2429.094482 2.398827,2428.547363 1.999989,2428.000000 
M1339.665039,364.282227 
	C1339.790527,384.184601 1339.916016,404.087006 1340.331665,424.554077 
	C1340.331665,424.554077 1341.219849,424.776062 1341.219849,424.776062 
	C1341.219849,424.776062 1342.017212,424.322479 1343.484863,423.847076 
	C1385.329102,410.856812 1427.173340,397.866547 1469.564819,384.706390 
	C1468.568481,381.343140 1467.977905,378.807739 1467.074219,376.389282 
	C1462.308350,363.634186 1457.697998,350.813965 1452.601074,338.191010 
	C1438.731567,303.841217 1421.734741,271.256958 1398.342896,242.243423 
	C1382.455811,222.538177 1364.020752,206.068222 1340.870605,195.410019 
	C1331.092529,190.908203 1321.041138,187.026505 1308.943726,186.712891 
	C1310.626343,191.839859 1312.217896,195.854660 1313.260010,200.007416 
	C1318.186401,219.638382 1323.614746,239.174362 1327.645630,258.992065 
	C1334.409424,292.246521 1337.659668,325.969086 1338.561646,360.880737 
	C1338.940796,361.409302 1339.319824,361.937836 1339.665039,364.282227 
M1245.613281,381.074158 
	C1245.171509,380.570709 1244.729614,380.067261 1244.315552,377.755920 
	C1242.968994,360.557220 1242.163696,343.295349 1240.165405,326.172699 
	C1235.723755,288.116272 1228.152222,250.688354 1215.481201,214.424973 
	C1214.216187,210.804413 1212.526123,207.332321 1210.876953,203.420197 
	C1207.970581,204.669083 1206.136597,205.376801 1204.371704,206.227402 
	C1168.291748,223.616852 1136.980835,247.279510 1109.509155,276.466431 
	C1086.586182,300.820648 1066.769409,327.346985 1049.655151,355.966553 
	C1018.710938,407.713287 997.330994,463.479401 980.675415,521.198486 
	C979.343323,525.814880 978.561768,530.590088 977.108093,537.178345 
	C1067.963379,509.048676 1156.989624,481.485291 1245.405029,454.111023 
	C1245.405029,429.322906 1245.405029,405.706696 1245.613281,381.074158 
M1076.104736,106.038521 
	C1067.066895,107.438576 1057.952515,108.467140 1049.005737,110.309486 
	C1023.783630,115.503311 999.787292,124.371292 976.915161,136.089798 
	C942.622559,153.659576 912.336487,176.859177 884.693420,203.535599 
	C855.154907,232.041153 829.758484,264.039886 806.665649,297.883942 
	C780.746887,335.869568 757.718140,375.601807 738.553101,417.372711 
	C720.966980,455.702362 703.841370,494.315186 688.497742,533.578918 
	C676.424622,564.473633 667.352417,596.542603 657.025452,628.115479 
	C656.259277,630.457886 656.124146,633.006775 655.530884,636.403259 
	C658.844055,635.518921 661.039856,635.011963 663.187134,634.348206 
	C727.675354,614.413635 792.091553,594.240234 856.721680,574.777283 
	C865.565186,572.114136 868.540955,567.534363 870.155151,559.242859 
	C882.897278,493.790222 901.568176,430.081573 928.762756,369.113617 
	C960.209290,298.613007 1000.699158,234.238449 1058.360962,181.780838 
	C1077.620239,164.259918 1098.210938,148.557785 1120.571289,135.237045 
	C1130.062378,129.582932 1139.862305,124.447319 1150.274658,118.657509 
	C1147.390503,116.726151 1145.564087,115.310913 1143.569092,114.197464 
	C1127.040771,104.972481 1109.086304,103.275818 1088.941895,104.119957 
	C1085.225830,104.687439 1081.509644,105.254921 1076.104736,106.038521 
M706.050842,2041.606445 
	C702.122192,2041.576050 698.193604,2041.545532 692.824463,2040.807129 
	C688.464905,2040.578735 684.105286,2040.350342 678.032349,2040.062256 
	C671.554810,2039.004272 665.037231,2038.145142 658.606995,2036.851807 
	C636.975464,2032.500977 616.203003,2025.412720 595.952148,2016.740723 
	C543.811768,1994.412964 496.661743,1963.900269 452.172424,1929.026733 
	C449.336304,1926.803589 446.438904,1924.658691 442.848022,1921.928223 
	C441.526306,1925.880737 440.426270,1928.921143 439.488739,1932.010864 
	C418.408325,2001.485352 397.339905,2070.963623 376.283661,2140.445312 
	C371.057190,2157.691650 370.987823,2157.791748 383.663849,2170.379883 
	C430.876495,2217.265137 485.964844,2252.322754 547.035461,2278.132080 
	C601.040161,2300.955078 657.272278,2315.182129 717.263855,2320.718262 
	C721.606934,2321.012207 725.950073,2321.306152 731.934998,2321.706055 
	C735.224243,2321.857422 738.513550,2322.008789 743.375122,2322.732910 
	C756.156677,2323.191895 768.936768,2323.920166 781.720520,2323.992920 
	C787.887146,2324.027832 794.060791,2322.830078 801.815918,2322.088379 
	C804.456970,2321.929688 807.098022,2321.770996 811.334045,2321.934326 
	C814.981079,2321.335938 818.628174,2320.737305 823.946960,2320.065674 
	C835.377808,2318.165527 846.903625,2316.710693 858.224854,2314.296387 
	C972.328857,2289.963379 1056.291504,2225.366455 1109.800903,2122.274658 
	C1155.833740,2033.587524 1168.621704,1938.373291 1157.184937,1839.945312 
	C1149.963257,1777.793213 1125.450562,1721.963013 1088.015503,1671.816772 
	C1060.515869,1634.979370 1028.045410,1602.957764 992.129578,1574.543091 
	C960.783630,1549.743774 928.320618,1526.361694 896.693237,1501.910889 
	C877.728943,1487.249634 859.135742,1472.073120 840.918030,1456.493896 
	C828.487488,1445.863770 817.812195,1433.431274 809.002808,1419.536987 
	C800.860718,1406.695435 794.690735,1392.928101 794.126587,1377.615356 
	C792.325195,1328.718018 811.770630,1290.890869 854.658264,1266.386108 
	C880.855103,1251.417725 909.714783,1245.318604 941.527588,1244.031494 
	C958.461182,1243.925415 975.394775,1243.819458 994.087891,1243.749878 
	C1054.639893,1248.228760 1112.072510,1264.547241 1167.742798,1290.692139 
	C1202.465332,1187.380737 1236.838867,1085.107788 1271.384766,982.321777 
	C1226.024292,959.908142 1178.577637,951.361633 1128.993164,944.823730 
	C1125.267700,944.588684 1121.542236,944.353577 1116.232056,944.035950 
	C1113.592896,943.874084 1110.953613,943.712219 1106.804443,942.839722 
	C1099.802979,942.589111 1092.801514,942.338501 1083.950562,942.084839 
	C1068.691040,942.106689 1053.431519,942.128540 1036.305908,941.826721 
	C1026.734985,942.458252 1017.164001,943.089722 1005.823303,943.730591 
	C993.300720,945.142700 980.752991,946.364319 968.261292,948.011047 
	C948.889038,950.564697 929.281982,952.177673 910.264038,956.396301 
	C875.510437,964.105530 841.355164,974.132507 808.410522,987.967834 
	C700.904907,1033.115723 618.208984,1105.684814 564.003784,1209.482056 
	C535.367493,1264.317627 518.119873,1322.711548 511.572449,1384.282104 
	C506.726074,1429.856323 506.480927,1475.227173 515.895569,1520.334473 
	C522.198792,1550.534424 532.391296,1579.296875 547.081238,1606.453613 
	C569.104675,1647.167480 599.117249,1681.404175 633.802856,1711.540283 
	C662.977722,1736.888428 693.148804,1761.087036 722.732544,1785.968384 
	C740.866577,1801.220215 758.031189,1817.488037 772.871521,1836.066528 
	C793.101562,1861.392212 805.817017,1889.736938 809.258057,1922.279663 
	C814.757324,1974.286987 783.296997,2031.808838 718.582703,2039.775146 
	C714.965515,2040.346191 711.348328,2040.917236 706.050842,2041.606445 
z"/>
<path fill="#000000" opacity="1.000000" stroke="none" 
	d="
M1091.545654,9.917521 
	C1045.049316,12.075638 1000.655640,23.337317 958.025879,41.574024 
	C913.333679,60.693008 873.402039,87.356750 836.832336,119.294098 
	C781.921387,167.249298 737.930969,224.139191 699.711060,285.801270 
	C661.027405,348.211670 629.765991,414.290344 603.229614,482.636261 
	C581.553955,538.463135 563.769714,595.566650 548.789368,653.545044 
	C549.026123,668.280090 540.027954,672.908630 527.147461,676.746094 
	C466.919067,694.689453 407.004852,713.690125 347.015411,732.431641 
	C320.679291,740.659424 294.403748,749.084595 268.163269,757.612671 
	C261.536377,759.766418 255.074951,762.485718 248.667511,765.246887 
	C232.243362,772.324646 221.583267,784.594727 218.127914,802.135864 
	C214.344910,821.340332 211.139465,840.680603 208.394608,860.062622 
	C203.506927,894.575745 199.095932,929.157043 194.598328,963.724487 
	C190.958954,991.695862 187.571411,1019.700073 183.917221,1047.669556 
	C178.886688,1086.173462 173.652496,1124.650757 168.618301,1163.154297 
	C165.735565,1185.202515 163.161469,1207.291016 160.296783,1229.341675 
	C155.763992,1264.232422 151.031586,1299.097168 146.518845,1333.990479 
	C142.346527,1366.251587 138.438049,1398.546753 134.256927,1430.806641 
	C129.094437,1470.638428 123.701469,1510.440430 118.537422,1550.272095 
	C114.312294,1582.861694 110.353317,1615.485596 106.137604,1648.076416 
	C100.986931,1687.895264 95.641350,1727.688843 90.473953,1767.505493 
	C86.160141,1800.745239 82.044441,1834.010742 77.725540,1867.249756 
	C73.449905,1900.155884 68.976723,1933.036255 64.689148,1965.940918 
	C60.957809,1994.576782 57.417675,2023.237549 53.697201,2051.874756 
	C48.695477,2090.374023 43.528793,2128.851807 38.569496,2167.356445 
	C34.329483,2200.276123 30.362816,2233.231445 26.126972,2266.151611 
	C21.724144,2300.369385 17.108978,2334.560059 12.657640,2368.771484 
	C10.902122,2382.263672 9.516818,2395.806396 7.590872,2409.272949 
	C6.914513,2414.002197 7.910223,2419.438232 2.698721,2422.537598 
	C2.000000,1615.428833 2.000000,808.857727 2.000000,2.143306 
	C801.809692,2.143306 1601.619507,2.143306 2402.000000,2.143306 
	C2402.000000,850.041748 2402.000000,1698.083618 2401.209961,2547.245117 
	C2399.645264,2546.607910 2398.437988,2544.916992 2398.160400,2543.085205 
	C2393.978027,2515.485596 2389.924316,2487.866699 2385.828125,2460.254150 
	C2379.488037,2417.513428 2373.122559,2374.776611 2366.797607,2332.033447 
	C2360.520752,2289.615479 2354.245361,2247.197266 2348.032959,2204.769531 
	C2341.821533,2162.344971 2335.758545,2119.898193 2329.502441,2077.480225 
	C2323.004883,2033.426147 2316.340088,1989.396973 2309.774902,1945.352905 
	C2303.453369,1902.946411 2297.144287,1860.538086 2290.870605,1818.124634 
	C2285.811768,1783.926270 2280.853760,1749.712891 2275.777832,1715.517090 
	C2270.752197,1681.663208 2265.584473,1647.830444 2260.572021,1613.974609 
	C2255.606445,1580.433105 2250.767822,1546.872925 2245.853760,1513.323853 
	C2240.941895,1479.790894 2236.037354,1446.256836 2231.072021,1412.731689 
	C2226.056885,1378.867676 2220.908691,1345.023315 2215.933350,1311.153442 
	C2211.006348,1277.613770 2206.313477,1244.039795 2201.352539,1210.505371 
	C2195.079102,1168.098877 2188.571533,1125.727051 2182.291260,1083.321533 
	C2177.276611,1049.462646 2172.542969,1015.562317 2167.516846,981.705200 
	C2161.221436,939.298035 2154.676025,896.928040 2148.387451,854.519958 
	C2143.268311,819.997253 2138.451416,785.429749 2133.349854,750.904480 
	C2126.936768,707.508728 2120.320557,664.143066 2113.888184,620.750122 
	C2109.940918,594.123962 2106.214355,567.465210 2102.309082,540.832764 
	C2100.627441,529.363770 2093.197998,520.077515 2083.767334,518.442444 
	C2075.980469,517.092346 2068.036865,516.644653 2059.492676,515.366150 
	C2054.490479,514.689880 2050.158691,514.444580 2044.978760,514.125916 
	C2040.166870,513.916260 2036.203003,513.779907 2031.572876,513.219788 
	C2027.180420,512.620605 2023.454346,512.445190 2018.875732,512.177612 
	C2013.471558,511.828674 2008.919922,511.571930 2003.654541,510.976196 
	C1999.217285,510.483093 1995.493530,510.328949 1990.946167,510.110596 
	C1986.819702,509.957581 1983.517090,509.868744 1979.541992,509.333191 
	C1974.483032,508.707153 1970.096313,508.527832 1964.872803,508.241425 
	C1960.103638,507.981354 1956.171143,507.828430 1951.562622,507.246796 
	C1946.529785,506.608673 1942.173096,506.399231 1936.984375,506.118530 
	C1932.813721,505.966949 1929.474976,505.886627 1925.452393,505.390869 
	C1920.406006,504.758972 1916.043213,504.542572 1910.846436,504.226166 
	C1906.097900,503.966492 1902.183472,503.806793 1897.596558,503.219391 
	C1893.171265,502.681091 1889.418335,502.570496 1884.829590,502.325378 
	C1880.042114,502.064331 1876.090454,501.937805 1871.471680,501.394196 
	C1866.540039,500.624329 1862.275513,500.271515 1857.525635,499.473267 
	C1818.297363,460.628448 1779.537720,422.246216 1740.821167,383.820618 
	C1726.884766,369.988892 1712.928467,356.173065 1699.222534,342.114777 
	C1692.116089,334.825592 1683.691650,330.996216 1673.670654,330.325104 
	C1673.670654,330.325104 1672.948853,330.089111 1671.934082,329.528381 
	C1665.839478,329.211853 1660.759644,329.456024 1655.679810,329.700226 
	C1642.148438,329.823425 1629.948730,335.462219 1617.304443,339.145050 
	C1598.500122,344.622070 1579.840088,350.593567 1561.112305,356.333862 
	C1559.900146,356.705414 1558.633789,356.900024 1556.869629,357.293640 
	C1552.636475,346.214874 1548.624512,335.346710 1544.346680,324.584290 
	C1527.350220,281.823853 1506.805542,240.964264 1479.329712,203.840012 
	C1453.331665,168.712189 1422.710571,138.588486 1384.004395,117.636696 
	C1361.977539,105.713486 1338.703857,96.811226 1313.547485,94.021790 
	C1295.533081,92.024261 1277.475220,90.417900 1259.658691,88.658920 
	C1246.848999,75.903214 1234.412354,61.951729 1220.365356,49.873020 
	C1194.914185,27.988123 1165.608887,13.700026 1130.242188,9.431530 
	C1119.837280,8.546507 1110.938965,8.062476 1102.042358,8.095314 
	C1098.541260,8.108238 1095.044434,9.275773 1091.545654,9.917521 
z"/>
<path fill="#FFFFFF" opacity="1.000000" stroke="none" 
	d="
M2004.368286,511.315186 
	C2008.919922,511.571930 2013.471558,511.828674 2019.524048,512.642639 
	C2024.762939,513.347778 2028.501099,513.495667 2032.239136,513.643616 
	C2036.203003,513.779907 2040.166870,513.916260 2045.647217,514.563965 
	C2051.496582,515.315979 2055.829834,515.556519 2060.162842,515.797058 
	C2068.036865,516.644653 2075.980469,517.092346 2083.767334,518.442444 
	C2093.197998,520.077515 2100.627441,529.363770 2102.309082,540.832764 
	C2106.214355,567.465210 2109.940918,594.123962 2113.888184,620.750122 
	C2120.320557,664.143066 2126.936768,707.508728 2133.349854,750.904480 
	C2138.451416,785.429749 2143.268311,819.997253 2148.387451,854.519958 
	C2154.676025,896.928040 2161.221436,939.298035 2167.516846,981.705200 
	C2172.542969,1015.562317 2177.276611,1049.462646 2182.291260,1083.321533 
	C2188.571533,1125.727051 2195.079102,1168.098877 2201.352539,1210.505371 
	C2206.313477,1244.039795 2211.006348,1277.613770 2215.933350,1311.153442 
	C2220.908691,1345.023315 2226.056885,1378.867676 2231.072021,1412.731689 
	C2236.037354,1446.256836 2240.941895,1479.790894 2245.853760,1513.323853 
	C2250.767822,1546.872925 2255.606445,1580.433105 2260.572021,1613.974609 
	C2265.584473,1647.830444 2270.752197,1681.663208 2275.777832,1715.517090 
	C2280.853760,1749.712891 2285.811768,1783.926270 2290.870605,1818.124634 
	C2297.144287,1860.538086 2303.453369,1902.946411 2309.774902,1945.352905 
	C2316.340088,1989.396973 2323.004883,2033.426147 2329.502441,2077.480225 
	C2335.758545,2119.898193 2341.821533,2162.344971 2348.032959,2204.769531 
	C2354.245361,2247.197266 2360.520752,2289.615479 2366.797607,2332.033447 
	C2373.122559,2374.776611 2379.488037,2417.513428 2385.828125,2460.254150 
	C2389.924316,2487.866699 2393.978027,2515.485596 2398.160400,2543.085205 
	C2398.437988,2544.916992 2399.645264,2546.607910 2401.209961,2548.182129 
	C2402.000000,2548.888916 2402.000000,2549.777832 2401.235352,2550.887451 
	C2383.235840,2554.736816 2365.986572,2558.298340 2348.768799,2562.006104 
	C2280.854004,2576.630859 2212.954102,2591.323730 2145.039307,2605.949219 
	C2079.059082,2620.158203 2013.053223,2634.247070 1947.086426,2648.517822 
	C1892.828491,2660.255859 1838.622559,2672.234131 1784.373535,2684.014404 
	C1723.640869,2697.202637 1662.898560,2710.346924 1602.130981,2723.374023 
	C1587.532227,2726.503662 1572.817871,2729.094482 1558.156616,2731.933105 
	C1558.736938,2714.307617 1559.113159,2696.672852 1559.939697,2679.059082 
	C1561.687012,2641.821533 1563.675781,2604.595459 1565.551880,2567.364014 
	C1566.288940,2552.735840 1567.065063,2538.109375 1567.688965,2523.476318 
	C1568.568115,2502.852539 1569.144165,2482.214600 1570.170166,2461.598633 
	C1571.824707,2428.357910 1573.755005,2395.130371 1575.538208,2361.895752 
	C1576.305054,2347.602783 1577.092529,2333.309814 1577.697876,2319.009277 
	C1578.598877,2297.719727 1579.144043,2276.413574 1580.206055,2255.132812 
	C1581.831543,2222.557129 1583.788818,2189.998535 1585.563477,2157.430176 
	C1586.324219,2143.470459 1587.063354,2129.508545 1587.664185,2115.541260 
	C1588.551025,2094.917969 1589.126465,2074.279785 1590.156860,2053.664307 
	C1591.834961,2020.091064 1593.799072,1986.532227 1595.590454,1952.964478 
	C1596.370850,1938.338623 1597.091064,1923.708740 1597.715454,1909.075439 
	C1598.581055,1888.784546 1599.151245,1868.479858 1600.170532,1848.197266 
	C1601.823975,1815.289551 1603.764526,1782.396606 1605.532959,1749.494629 
	C1606.319214,1734.869385 1607.057129,1720.240601 1607.682251,1705.607788 
	C1608.563354,1684.984131 1609.144043,1664.346436 1610.168823,1643.730347 
	C1611.820923,1610.489258 1613.743774,1577.261475 1615.524414,1544.026611 
	C1616.290161,1529.733521 1617.079712,1515.440674 1617.691162,1501.140503 
	C1618.587036,1480.184082 1619.141235,1459.211914 1620.185913,1438.263550 
	C1621.827148,1405.355591 1623.774048,1372.462891 1625.553711,1339.561768 
	C1626.326904,1325.268921 1627.102661,1310.974976 1627.705322,1296.674316 
	C1628.602539,1275.384644 1629.141113,1254.078491 1630.204712,1232.797852 
	C1631.832886,1200.222290 1633.800781,1167.663818 1635.578491,1135.095581 
	C1636.340576,1121.135742 1637.080322,1107.173706 1637.664795,1093.205688 
	C1638.569458,1071.582886 1639.126343,1049.943848 1640.203735,1028.330322 
	C1641.810669,996.087280 1643.770630,963.862000 1645.522461,931.626038 
	C1646.317139,917.001282 1647.021606,902.371094 1647.678467,887.739441 
	C1648.499512,869.447083 1649.114502,851.144958 1650.023193,832.857239 
	C1651.807251,796.955017 1653.739624,761.060181 1655.596558,725.161560 
	C1656.318848,711.199585 1657.091064,697.239380 1657.684204,683.271729 
	C1658.574097,662.315308 1659.136841,641.343506 1660.180664,620.395386 
	C1661.820190,587.486938 1663.792969,554.595276 1665.527954,521.691406 
	C1666.421875,504.737000 1667.151245,487.773499 1667.875366,470.810699 
	C1668.756104,450.187103 1669.435425,429.554321 1670.417725,408.935791 
	C1671.478760,386.662201 1672.815796,364.401886 1673.961304,342.132141 
	C1674.132080,338.813995 1673.913208,335.475830 1673.772583,331.236023 
	C1683.691650,330.996216 1692.116089,334.825592 1699.222534,342.114777 
	C1712.928467,356.173065 1726.884766,369.988892 1740.821167,383.820618 
	C1779.537720,422.246216 1818.297363,460.628448 1858.137451,499.978088 
	C1863.536133,501.222687 1867.837524,501.516968 1872.138916,501.811279 
	C1876.090454,501.937805 1880.042114,502.064331 1885.510742,502.740021 
	C1890.774902,503.408478 1894.521973,503.527802 1898.268921,503.647095 
	C1902.183472,503.806793 1906.097900,503.966492 1911.519653,504.675720 
	C1917.396606,505.418976 1921.766479,505.612640 1926.136230,505.806335 
	C1929.474976,505.886627 1932.813721,505.966949 1937.658691,506.557068 
	C1943.522827,507.269745 1947.880859,507.472595 1952.238770,507.675476 
	C1956.171143,507.828430 1960.103638,507.981354 1965.547363,508.686646 
	C1971.443970,509.419281 1975.829224,509.599609 1980.214355,509.779907 
	C1983.517090,509.868744 1986.819702,509.957581 1991.615601,510.552979 
	C1996.861938,511.144745 2000.615112,511.229950 2004.368286,511.315186 
z"/>
<path fill="#000000" opacity="1.000000" stroke="none" 
	d="
M1557.569580,2732.267578 
	C1572.817871,2729.094482 1587.532227,2726.503662 1602.130981,2723.374023 
	C1662.898560,2710.346924 1723.640869,2697.202637 1784.373535,2684.014404 
	C1838.622559,2672.234131 1892.828491,2660.255859 1947.086426,2648.517822 
	C2013.053223,2634.247070 2079.059082,2620.158203 2145.039307,2605.949219 
	C2212.954102,2591.323730 2280.854004,2576.630859 2348.768799,2562.006104 
	C2365.986572,2558.298340 2383.235840,2554.736816 2401.235352,2551.554199 
	C2402.000000,2614.647705 2402.000000,2677.295410 2402.000000,2739.892578 
	C1602.000000,2739.892578 802.000000,2739.892578 2.000000,2739.892578 
	C2.000000,2641.148193 2.000000,2542.511230 2.000013,2442.937012 
	C18.275078,2445.162842 34.524548,2448.465576 50.832302,2451.450195 
	C67.423645,2454.487061 84.104210,2457.038086 100.689377,2460.106201 
	C134.626083,2466.385010 168.541443,2472.781982 202.434082,2479.294678 
	C227.029724,2484.020752 251.557587,2489.098877 276.147461,2493.855713 
	C297.505798,2497.987305 318.909912,2501.882324 340.291290,2505.895264 
	C361.347473,2509.846924 382.373718,2513.965088 403.462189,2517.736328 
	C427.749969,2522.079590 452.137817,2525.872803 476.394531,2530.377197 
	C494.864288,2533.806641 513.152527,2538.206299 531.604797,2541.739502 
	C547.515625,2544.786621 563.581177,2547.020508 579.509766,2549.982666 
	C595.368103,2552.932129 611.103577,2556.541992 626.962769,2559.486328 
	C640.546875,2562.008789 654.284668,2563.709961 667.857239,2566.286621 
	C693.565735,2571.167480 719.175232,2576.569580 744.882629,2581.456299 
	C761.451050,2584.606201 778.156433,2587.032227 794.738159,2590.117188 
	C839.130615,2598.375977 883.487610,2606.825195 927.862488,2615.178467 
	C959.820862,2621.194336 991.776733,2627.224121 1023.750488,2633.157471 
	C1044.219116,2636.956055 1064.750366,2640.423096 1085.192993,2644.354248 
	C1100.427856,2647.283691 1115.511108,2651.010742 1130.759277,2653.861572 
	C1155.992188,2658.579346 1181.312256,2662.829346 1206.579346,2667.367188 
	C1226.682861,2670.978027 1246.771851,2674.671631 1266.849365,2678.424805 
	C1288.835571,2682.534180 1310.821411,2686.651611 1332.769287,2690.959473 
	C1350.552734,2694.450195 1368.239502,2698.439697 1386.043823,2701.814697 
	C1401.637085,2704.769775 1417.379028,2706.939697 1432.974731,2709.883057 
	C1456.651367,2714.350586 1480.218506,2719.401855 1503.907959,2723.796387 
	C1521.537354,2727.066650 1539.286621,2729.690186 1557.569580,2732.267578 
z"/>
<path fill="#000000" opacity="1.000000" stroke="none" 
	d="
M1.999989,2428.500000 
	C2.398827,2428.547363 2.797676,2429.094482 2.598263,2429.820801 
	C2.000000,2430.000000 2.000000,2429.000000 1.999989,2428.500000 
z"/>
<path fill="#000000" opacity="1.000000" stroke="none" 
	d="
M1038.171997,942.150391 
	C1053.431519,942.128540 1068.691040,942.106689 1085.661133,942.336792 
	C1094.352539,942.909241 1101.333496,943.229797 1108.314453,943.550293 
	C1110.953613,943.712219 1113.592896,943.874084 1117.758667,944.374451 
	C1122.991333,944.999329 1126.697388,945.285706 1130.403442,945.572083 
	C1178.577637,951.361633 1226.024292,959.908142 1271.384766,982.321777 
	C1236.838867,1085.107788 1202.465332,1187.380737 1167.742798,1290.692139 
	C1112.072510,1264.547241 1054.639893,1248.228760 992.422363,1243.412598 
	C973.691040,1241.484253 956.632812,1240.535889 939.622559,1243.674683 
	C909.714783,1245.318604 880.855103,1251.417725 854.658264,1266.386108 
	C811.770630,1290.890869 792.325195,1328.718018 794.126587,1377.615356 
	C794.690735,1392.928101 800.860718,1406.695435 809.002808,1419.536987 
	C817.812195,1433.431274 828.487488,1445.863770 840.918030,1456.493896 
	C859.135742,1472.073120 877.728943,1487.249634 896.693237,1501.910889 
	C928.320618,1526.361694 960.783630,1549.743774 992.129578,1574.543091 
	C1028.045410,1602.957764 1060.515869,1634.979370 1088.015503,1671.816772 
	C1125.450562,1721.963013 1149.963257,1777.793213 1157.184937,1839.945312 
	C1168.621704,1938.373291 1155.833740,2033.587524 1109.800903,2122.274658 
	C1056.291504,2225.366455 972.328857,2289.963379 858.224854,2314.296387 
	C846.903625,2316.710693 835.377808,2318.165527 822.303955,2319.956055 
	C817.020386,2320.435059 813.379700,2321.023682 809.739075,2321.612305 
	C807.098022,2321.770996 804.456970,2321.929688 800.074402,2321.988281 
	C779.489502,2321.979004 760.646179,2322.069580 741.802795,2322.160156 
	C738.513550,2322.008789 735.224243,2321.857422 730.388062,2321.305664 
	C724.484558,2320.643799 720.127991,2320.382568 715.771423,2320.121094 
	C657.272278,2315.182129 601.040161,2300.955078 547.035461,2278.132080 
	C485.964844,2252.322754 430.876495,2217.265137 383.663849,2170.379883 
	C370.987823,2157.791748 371.057190,2157.691650 376.283661,2140.445312 
	C397.339905,2070.963623 418.408325,2001.485352 439.488739,1932.010864 
	C440.426270,1928.921143 441.526306,1925.880737 442.848022,1921.928223 
	C446.438904,1924.658691 449.336304,1926.803589 452.172424,1929.026733 
	C496.661743,1963.900269 543.811768,1994.412964 595.952148,2016.740723 
	C616.203003,2025.412720 636.975464,2032.500977 658.606995,2036.851807 
	C665.037231,2038.145142 671.554810,2039.004272 679.632812,2040.404297 
	C685.577148,2041.002563 689.921082,2041.258789 694.264954,2041.515137 
	C698.193604,2041.545532 702.122192,2041.576050 707.682251,2041.720703 
	C712.935364,2041.242554 716.557129,2040.650146 720.178894,2040.057861 
	C783.296997,2031.808838 814.757324,1974.286987 809.258057,1922.279663 
	C805.817017,1889.736938 793.101562,1861.392212 772.871521,1836.066528 
	C758.031189,1817.488037 740.866577,1801.220215 722.732544,1785.968384 
	C693.148804,1761.087036 662.977722,1736.888428 633.802856,1711.540283 
	C599.117249,1681.404175 569.104675,1647.167480 547.081238,1606.453613 
	C532.391296,1579.296875 522.198792,1550.534424 515.895569,1520.334473 
	C506.480927,1475.227173 506.726074,1429.856323 511.572449,1384.282104 
	C518.119873,1322.711548 535.367493,1264.317627 564.003784,1209.482056 
	C618.208984,1105.684814 700.904907,1033.115723 808.410522,987.967834 
	C841.355164,974.132507 875.510437,964.105530 910.264038,956.396301 
	C929.281982,952.177673 948.889038,950.564697 968.261292,948.011047 
	C980.752991,946.364319 993.300720,945.142700 1007.656860,943.904480 
	C1019.050903,943.435730 1028.611450,942.793091 1038.171997,942.150391 
z"/>
<path fill="#010100" opacity="1.000000" stroke="none" 
	d="
M1090.631836,104.290909 
	C1109.086304,103.275818 1127.040771,104.972481 1143.569092,114.197464 
	C1145.564087,115.310913 1147.390503,116.726151 1150.274658,118.657509 
	C1139.862305,124.447319 1130.062378,129.582932 1120.571289,135.237045 
	C1098.210938,148.557785 1077.620239,164.259918 1058.360962,181.780838 
	C1000.699158,234.238449 960.209290,298.613007 928.762756,369.113617 
	C901.568176,430.081573 882.897278,493.790222 870.155151,559.242859 
	C868.540955,567.534363 865.565186,572.114136 856.721680,574.777283 
	C792.091553,594.240234 727.675354,614.413635 663.187134,634.348206 
	C661.039856,635.011963 658.844055,635.518921 655.530884,636.403259 
	C656.124146,633.006775 656.259277,630.457886 657.025452,628.115479 
	C667.352417,596.542603 676.424622,564.473633 688.497742,533.578918 
	C703.841370,494.315186 720.966980,455.702362 738.553101,417.372711 
	C757.718140,375.601807 780.746887,335.869568 806.665649,297.883942 
	C829.758484,264.039886 855.154907,232.041153 884.693420,203.535599 
	C912.336487,176.859177 942.622559,153.659576 976.915161,136.089798 
	C999.787292,124.371292 1023.783630,115.503311 1049.005737,110.309486 
	C1057.952515,108.467140 1067.066895,107.438576 1077.779663,106.006744 
	C1083.180298,105.413612 1086.906128,104.852264 1090.631836,104.290909 
z"/>
<path fill="#010100" opacity="1.000000" stroke="none" 
	d="
M1245.405029,382.090485 
	C1245.405029,405.706696 1245.405029,429.322906 1245.405029,454.111023 
	C1156.989624,481.485291 1067.963379,509.048676 977.108093,537.178345 
	C978.561768,530.590088 979.343323,525.814880 980.675415,521.198486 
	C997.330994,463.479401 1018.710938,407.713287 1049.655151,355.966553 
	C1066.769409,327.346985 1086.586182,300.820648 1109.509155,276.466431 
	C1136.980835,247.279510 1168.291748,223.616852 1204.371704,206.227402 
	C1206.136597,205.376801 1207.970581,204.669083 1210.876953,203.420197 
	C1212.526123,207.332321 1214.216187,210.804413 1215.481201,214.424973 
	C1228.152222,250.688354 1235.723755,288.116272 1240.165405,326.172699 
	C1242.163696,343.295349 1242.968994,360.557220 1244.338867,379.135468 
	C1244.551147,381.145142 1244.898804,381.670288 1245.405029,382.090485 
z"/>
<path fill="#010100" opacity="1.000000" stroke="none" 
	d="
M1338.712036,359.892456 
	C1337.659668,325.969086 1334.409424,292.246521 1327.645630,258.992065 
	C1323.614746,239.174362 1318.186401,219.638382 1313.260010,200.007416 
	C1312.217896,195.854660 1310.626343,191.839859 1308.943726,186.712891 
	C1321.041138,187.026505 1331.092529,190.908203 1340.870605,195.410019 
	C1364.020752,206.068222 1382.455811,222.538177 1398.342896,242.243423 
	C1421.734741,271.256958 1438.731567,303.841217 1452.601074,338.191010 
	C1457.697998,350.813965 1462.308350,363.634186 1467.074219,376.389282 
	C1467.977905,378.807739 1468.568481,381.343140 1469.564819,384.706390 
	C1427.173340,397.866547 1385.329102,410.856812 1342.266357,423.949646 
	C1340.712524,424.031250 1340.377075,424.010315 1340.041504,423.989380 
	C1339.916016,404.087006 1339.790527,384.184601 1339.704834,362.887512 
	C1339.624512,360.814850 1339.280273,360.281403 1338.712036,359.892456 
z"/>
<path fill="#D4D585" opacity="1.000000" stroke="none" 
	d="
M742.588989,2322.446533 
	C760.646179,2322.069580 779.489502,2321.979004 799.282104,2322.039551 
	C794.060791,2322.830078 787.887146,2324.027832 781.720520,2323.992920 
	C768.936768,2323.920166 756.156677,2323.191895 742.588989,2322.446533 
z"/>
<path fill="#D5D689" opacity="1.000000" stroke="none" 
	d="
M940.575073,1243.853027 
	C956.632812,1240.535889 973.691040,1241.484253 991.542603,1243.394287 
	C975.394775,1243.819458 958.461182,1243.925415 940.575073,1243.853027 
z"/>
<path fill="#245F20" opacity="1.000000" stroke="none" 
	d="
M1092.522461,9.989969 
	C1095.044434,9.275773 1098.541260,8.108238 1102.042358,8.095314 
	C1110.938965,8.062476 1119.837280,8.546507 1129.426758,9.299458 
	C1117.912109,9.871001 1105.705688,9.966709 1092.522461,9.989969 
z"/>
<path fill="#C5ECC7" opacity="1.000000" stroke="none" 
	d="
M1037.239014,941.988525 
	C1028.611450,942.793091 1019.050903,943.435730 1008.541748,943.899780 
	C1017.164001,943.089722 1026.734985,942.458252 1037.239014,941.988525 
z"/>
<path fill="#B3DFA1" opacity="1.000000" stroke="none" 
	d="
M1107.559448,943.195007 
	C1101.333496,943.229797 1094.352539,942.909241 1086.585815,942.338257 
	C1092.801514,942.338501 1099.802979,942.589111 1107.559448,943.195007 
z"/>
<path fill="#245C22" opacity="1.000000" stroke="none" 
	d="
M1656.598511,329.793732 
	C1660.759644,329.456024 1665.839478,329.211853 1671.573242,329.410217 
	C1667.323730,329.864227 1662.420532,329.875732 1656.598511,329.793732 
z"/>
<path fill="#DEDD9D" opacity="1.000000" stroke="none" 
	d="
M716.517639,2320.419678 
	C720.127991,2320.382568 724.484558,2320.643799 729.567139,2321.252441 
	C725.950073,2321.306152 721.606934,2321.012207 716.517639,2320.419678 
z"/>
<path fill="#AEDB96" opacity="1.000000" stroke="none" 
	d="
M693.544678,2041.161133 
	C689.921082,2041.258789 685.577148,2041.002563 680.489502,2040.434082 
	C684.105286,2040.350342 688.464905,2040.578735 693.544678,2041.161133 
z"/>
<path fill="#BAE4B1" opacity="1.000000" stroke="none" 
	d="
M1129.698242,945.197876 
	C1126.697388,945.285706 1122.991333,944.999329 1118.551025,944.415710 
	C1121.542236,944.353577 1125.267700,944.588684 1129.698242,945.197876 
z"/>
<path fill="#E3E1A8" opacity="1.000000" stroke="none" 
	d="
M810.536560,2321.773438 
	C813.379700,2321.023682 817.020386,2320.435059 821.468140,2319.992676 
	C818.628174,2320.737305 814.981079,2321.335938 810.536560,2321.773438 
z"/>
<path fill="#AEDB96" opacity="1.000000" stroke="none" 
	d="
M719.380798,2039.916504 
	C716.557129,2040.650146 712.935364,2041.242554 708.522339,2041.661621 
	C711.348328,2040.917236 714.965515,2040.346191 719.380798,2039.916504 
z"/>
<path fill="#716325" opacity="1.000000" stroke="none" 
	d="
M1089.786865,104.205437 
	C1086.906128,104.852264 1083.180298,105.413612 1078.624023,105.898682 
	C1081.509644,105.254921 1085.225830,104.687439 1089.786865,104.205437 
z"/>
<path fill="#6F9135" opacity="1.000000" stroke="none" 
	d="
M1340.186646,424.271729 
	C1340.377075,424.010315 1340.712524,424.031250 1341.532593,424.187347 
	C1342.017212,424.322479 1341.219849,424.776062 1341.219849,424.776062 
	C1341.219849,424.776062 1340.331665,424.554077 1340.186646,424.271729 
z"/>
<path fill="#252E11" opacity="1.000000" stroke="none" 
	d="
M1245.509155,381.582336 
	C1244.898804,381.670288 1244.551147,381.145142 1244.324951,380.039429 
	C1244.729614,380.067261 1245.171509,380.570709 1245.509155,381.582336 
z"/>
<path fill="#253215" opacity="1.000000" stroke="none" 
	d="
M1338.636841,360.386597 
	C1339.280273,360.281403 1339.624512,360.814850 1339.721924,361.979614 
	C1339.319824,361.937836 1338.940796,361.409302 1338.636841,360.386597 
z"/>
<path fill="#1D5021" opacity="1.000000" stroke="none" 
	d="
M1951.562622,507.246796 
	C1947.880859,507.472595 1943.522827,507.269745 1938.490723,506.628326 
	C1942.173096,506.399231 1946.529785,506.608673 1951.562622,507.246796 
z"/>
<path fill="#1B4F1C" opacity="1.000000" stroke="none" 
	d="
M1979.541992,509.333191 
	C1975.829224,509.599609 1971.443970,509.419281 1966.384277,508.793762 
	C1970.096313,508.527832 1974.483032,508.707153 1979.541992,509.333191 
z"/>
<path fill="#1D4F20" opacity="1.000000" stroke="none" 
	d="
M2059.492676,515.366150 
	C2055.829834,515.556519 2051.496582,515.315979 2046.495239,514.637329 
	C2050.158691,514.444580 2054.490479,514.689880 2059.492676,515.366150 
z"/>
<path fill="#1D4E1F" opacity="1.000000" stroke="none" 
	d="
M1871.471680,501.394226 
	C1867.837524,501.516968 1863.536133,501.222687 1858.622925,500.423584 
	C1862.275513,500.271515 1866.540039,500.624329 1871.471680,501.394226 
z"/>
<path fill="#1A4B1E" opacity="1.000000" stroke="none" 
	d="
M1925.452393,505.390839 
	C1921.766479,505.612640 1917.396606,505.418976 1912.353760,504.775696 
	C1916.043213,504.542572 1920.406006,504.758972 1925.452393,505.390839 
z"/>
<path fill="#1B4F20" opacity="1.000000" stroke="none" 
	d="
M1897.596558,503.219421 
	C1894.521973,503.527802 1890.774902,503.408478 1886.346680,502.874512 
	C1889.418335,502.570496 1893.171265,502.681091 1897.596558,503.219421 
z"/>
<path fill="#1B4E20" opacity="1.000000" stroke="none" 
	d="
M2031.572876,513.219788 
	C2028.501099,513.495667 2024.762939,513.347778 2020.376465,512.734863 
	C2023.454346,512.445190 2027.180420,512.620605 2031.572876,513.219788 
z"/>
<path fill="#1C4E20" opacity="1.000000" stroke="none" 
	d="
M2003.654541,510.976196 
	C2000.615112,511.229950 1996.861938,511.144745 1992.439331,510.617157 
	C1995.493530,510.328949 1999.217285,510.483093 2003.654541,510.976196 
z"/>
</svg>